<svg width="92" height="91" viewBox="0 0 92 91" fill="none" xmlns="http://www.w3.org/2000/svg">
<rect width="92" height="91" fill="#F5F5F5"/>
<g id="Cover">
<rect width="1600" height="960" transform="translate(-910 -438)" fill="#F9F9F9"/>
<g id="Auto-Invest (active)">
<g clip-path="url(#clip0_1_392)">
<rect x="-596" y="-422" width="893" height="879.357" rx="40" fill="white"/>
<g id="Frame 140">
<g clip-path="url(#clip1_1_392)">
<rect x="-373.37" y="-340.142" width="669.75" height="797.499" rx="9.92222" fill="white"/>
<g id="Frame 281" clip-path="url(#clip2_1_392)">
<rect id="Rectangle 402" x="-30.7434" y="-96.7371" width="287.124" height="228.211" rx="9.61215" fill="white" stroke="#E5E5F3" stroke-width="0.620139"/>
<g id="Group 4017">
<g id="Group 15">
<path id="Ellipse 8" d="M3.67437 45.5847C2.3044 45.5847 1.18663 44.4732 1.26271 43.1054C1.63825 36.3522 3.54406 29.761 6.8492 23.8352C10.5578 17.1861 15.905 11.5957 22.3827 7.59528C28.8605 3.59484 36.2535 1.31723 43.8594 0.978875C50.6379 0.677323 57.3847 1.92495 63.5911 4.61334C64.8482 5.15787 65.3415 6.65506 64.728 7.87998L57.352 22.607C56.7385 23.8319 55.2515 24.3139 53.9682 23.8346C51.0521 22.7453 47.9385 22.2506 44.8119 22.3897C40.8568 22.5656 37.0125 23.75 33.644 25.8302C30.2756 27.9104 27.4951 30.8174 25.5666 34.275C24.0421 37.0082 23.0901 40.0138 22.7582 43.1089C22.6121 44.471 21.5152 45.5847 20.1453 45.5847L3.67437 45.5847Z" fill="#2D91FE" stroke="white" stroke-width="1.24028"/>
<path id="Ellipse 10" d="M63.5568 7.31583C64.1322 6.07257 65.6104 5.52506 66.8198 6.16865C73.6696 9.81383 79.4648 15.1891 83.6173 21.7776C87.7697 28.366 90.119 35.9132 90.4525 43.6653C90.5114 45.034 89.3797 46.1314 88.0098 46.1142L71.5403 45.9074C70.1704 45.8902 69.0876 44.7628 68.9586 43.3989C68.6171 39.7872 67.4326 36.2935 65.486 33.205C63.5394 30.1165 60.8986 27.5406 57.7876 25.6744C56.6128 24.9697 56.0628 23.5065 56.6383 22.2632L63.5568 7.31583Z" fill="#FF6769" stroke="white" stroke-width="1.24028"/>
<path id="Ellipse 11" d="M33.5173 85.9123C33.1169 87.2225 31.7271 87.9665 30.4412 87.4939C22.2792 84.4943 15.152 79.1685 9.95678 72.1505C4.76159 65.1325 1.74904 56.7607 1.26348 48.0785C1.18699 46.7107 2.3044 45.5988 3.67437 45.5983L20.1452 45.593C21.5152 45.5926 22.6124 46.706 22.759 48.0681C23.1987 52.1562 24.7185 56.0704 27.1825 59.3989C29.6465 62.7275 32.9463 65.324 36.7279 66.9383C37.9878 67.4762 38.7324 68.8507 38.3319 70.1608L33.5173 85.9123Z" fill="#FFC359" stroke="white" stroke-width="1.24028"/>
<path id="Ellipse 9" d="M88.0132 45.5847C89.3832 45.5847 90.501 46.6962 90.4249 48.0641C90.0804 54.2592 88.4477 60.3242 85.6209 65.8678C82.4178 72.1493 77.7727 77.5829 72.0658 81.7237C66.3589 85.8646 59.7524 88.5951 52.7872 89.6915C46.6401 90.6592 40.3679 90.33 34.3715 88.7357C33.0475 88.3837 32.3376 86.9763 32.7626 85.6739L37.8719 70.0156C38.2969 68.7132 39.696 68.0159 41.0362 68.2995C43.7986 68.8842 46.6515 68.9615 49.4544 68.5203C53.0763 67.9501 56.5116 66.5303 59.4792 64.377C62.4468 62.2238 64.8623 59.3983 66.5279 56.132C67.8168 53.6042 68.6283 50.8681 68.9294 48.0606C69.0755 46.6985 70.1724 45.5847 71.5423 45.5847L88.0132 45.5847Z" fill="#4BDFFF" stroke="white" stroke-width="1.24028"/>
</g>
</g>
</g>
</g>
</g>
</g>
</g>
</g>
<defs>
<clipPath id="clip0_1_392">
<rect x="-596" y="-422" width="893" height="879.357" rx="40" fill="white"/>
</clipPath>
<clipPath id="clip1_1_392">
<rect x="-373.37" y="-340.142" width="669.75" height="797.499" rx="9.92222" fill="white"/>
</clipPath>
<clipPath id="clip2_1_392">
<rect width="287.744" height="228.831" fill="white" transform="translate(-31.0535 -97.0472)"/>
</clipPath>
</defs>
</svg>
