<svg width="31" height="36" viewBox="0 0 31 36" fill="none" xmlns="http://www.w3.org/2000/svg">
<g filter="url(#filter0_d_667_45)">
<path fill-rule="evenodd" clip-rule="evenodd" d="M23.0882 1.4514C24.6419 3.00512 24.6419 5.52417 23.0882 7.07786L21.5189 8.64712C21.0345 9.13147 21.0345 9.91678 21.5189 10.4011L24.9926 13.8749C26.5463 15.4286 26.5463 17.9477 24.9926 19.5014C23.4389 21.0551 20.9199 21.0551 19.3662 19.5014L12.2022 12.3373C11.4561 11.5912 11.0369 10.5792 11.0369 9.52408C11.0369 8.46891 11.4561 7.45696 12.2022 6.71085L17.4618 1.45136C19.0155 -0.102333 21.5345 -0.102314 23.0882 1.4514Z" fill="url(#paint0_radial_667_45)"/>
<path fill-rule="evenodd" clip-rule="evenodd" d="M5.89526 8.3569C7.44894 6.80317 9.96797 6.80315 11.5217 8.35686L18.6857 15.5209C19.4318 16.267 19.851 17.279 19.851 18.3342C19.851 19.3894 19.4318 20.4013 18.6856 21.1475L13.4261 26.407C11.8724 27.9607 9.35334 27.9606 7.79968 26.4069C6.24601 24.8531 6.24605 22.3341 7.79977 20.7804L9.369 19.2112C9.85336 18.7268 9.85336 17.9415 9.36901 17.4571L5.8953 13.9834C4.3416 12.4297 4.34158 9.91062 5.89526 8.3569Z" fill="#4BDFFF"/>
<path fill-rule="evenodd" clip-rule="evenodd" d="M19.6023 19.7193C19.5215 19.6504 19.4427 19.5777 19.3663 19.5013L12.2023 12.3373C11.4562 11.5911 11.037 10.5792 11.037 9.52402C11.0371 9.04661 11.1229 8.57805 11.2859 8.13895C11.3668 8.20783 11.4455 8.28047 11.5219 8.35687L18.6859 15.5209C19.432 16.267 19.8512 17.279 19.8512 18.3342C19.8512 18.8116 19.7654 19.2802 19.6023 19.7193Z" fill="#2D91FE"/>
</g>
<defs>
<filter id="filter0_d_667_45" x="0.730011" y="0.286102" width="29.4279" height="35.2861" filterUnits="userSpaceOnUse" color-interpolation-filters="sRGB">
<feFlood flood-opacity="0" result="BackgroundImageFix"/>
<feColorMatrix in="SourceAlpha" type="matrix" values="0 0 0 0 0 0 0 0 0 0 0 0 0 0 0 0 0 0 127 0" result="hardAlpha"/>
<feOffset dy="4"/>
<feGaussianBlur stdDeviation="2"/>
<feComposite in2="hardAlpha" operator="out"/>
<feColorMatrix type="matrix" values="0 0 0 0 0 0 0 0 0 0 0 0 0 0 0 0 0 0 0.25 0"/>
<feBlend mode="normal" in2="BackgroundImageFix" result="effect1_dropShadow_667_45"/>
<feBlend mode="normal" in="SourceGraphic" in2="effect1_dropShadow_667_45" result="shape"/>
</filter>
<radialGradient id="paint0_radial_667_45" cx="0" cy="0" r="1" gradientUnits="userSpaceOnUse" gradientTransform="translate(20.0357 16.5101) rotate(-84.6107) scale(16.2961 102.046)">
<stop stop-color="#2DADFE"/>
<stop offset="1" stop-color="#2D91FE"/>
</radialGradient>
</defs>
</svg>
