<svg width="223" height="264" viewBox="0 0 223 264" fill="none" xmlns="http://www.w3.org/2000/svg">
<g clip-path="url(#clip0_1_543)">
<mask id="mask0_1_543" style="mask-type:alpha" maskUnits="userSpaceOnUse" x="66" y="64" width="91" height="72">
<path d="M66.2495 64.7029H156.232V135.027H66.2495V64.7029Z" fill="white"/>
</mask>
<g mask="url(#mask0_1_543)">
<path d="M143.768 135.026C154.682 122.871 157.969 112.453 155.364 108.236C152.077 102.903 149.473 105.073 144.698 101.725C134.28 94.469 144.636 87.4615 140.977 83.8647C134.217 77.0431 127.21 94.9651 119.272 88.8258C113.753 84.5468 120.45 78.7795 119.272 72.5161C116.978 59.8653 101.04 64.5783 96.203 72.5161C91.3039 80.5159 89.3194 91.8644 75.2423 93.1047C67.1185 93.8489 59.2427 106.5 76.6686 113.817C84.6064 117.166 67.9867 125.042 76.0485 135.026H143.768Z" fill="#EFF1FE"/>
</g>
<path d="M127.842 94.978C127.47 96.6524 126.849 98.2648 126.353 99.9391C125.857 101.614 125.361 103.35 125.361 105.148C125.361 107.443 126.291 109.737 127.842 111.412C128.462 112.094 129.206 112.652 129.64 113.396C130.136 114.14 130.322 115.195 129.764 115.939C129.02 116.993 127.346 116.745 126.229 117.427C124.803 118.233 124.617 120.342 125.423 121.768C126.229 123.194 129.888 127.287 135.159 126.233C137.516 125.799 140.678 123.566 140.616 121.148C140.492 118.667 138.136 116.683 138.198 114.14C138.26 112.528 139.376 111.164 140.306 109.799C141.237 108.497 142.167 106.885 141.733 105.272C141.113 102.978 138.074 102.234 136.648 100.311C135.717 99.0709 135.531 97.4586 135.469 95.9082C135.407 94.3579 135.469 92.8075 134.911 91.3192C133.733 87.9084 129.33 88.3425 127.842 94.978Z" fill="#9FA8ED"/>
<path d="M133.3 130.637H133.548V103.847H133.3V130.637Z" fill="#7880EF"/>
<path d="M133.485 111.598L133.237 111.536C133.609 109.117 136.4 107.629 136.524 107.567L136.648 107.753C136.648 107.815 133.919 109.303 133.485 111.598Z" fill="#7880EF"/>
<path d="M133.299 122.14C133.051 120.528 131.066 119.411 131.066 119.411L131.19 119.225C131.252 119.287 133.299 120.342 133.547 122.14H133.299Z" fill="#7880EF"/>
<path d="M134.788 135.349H131.998C130.323 135.349 128.959 133.985 128.959 132.31V129.706H137.889V132.248C137.827 133.985 136.463 135.349 134.788 135.349Z" fill="#9FA8ED"/>
<path d="M128.896 130.76H137.826V130.512H128.896V130.76Z" fill="white"/>
<path d="M154.135 85.6762L151.592 88.2808L148.987 85.6762L151.53 83.1336L154.135 85.6762Z" stroke="#9FA8ED" stroke-width="0.620139" stroke-miterlimit="10"/>
<path d="M118.664 45.9871V47.1033" stroke="#9FA8ED" stroke-width="0.620139" stroke-miterlimit="10"/>
<path d="M118.664 49.8319V50.9482" stroke="#9FA8ED" stroke-width="0.620139" stroke-miterlimit="10"/>
<path d="M121.144 48.4676H120.028" stroke="#9FA8ED" stroke-width="0.620139" stroke-miterlimit="10"/>
<path d="M117.299 48.4676H116.183" stroke="#9FA8ED" stroke-width="0.620139" stroke-miterlimit="10"/>
<path d="M84.6189 48.6541L86.1693 54.4834L90.4482 50.2045L84.6189 48.6541Z" stroke="#9FA8ED" stroke-width="0.620139" stroke-miterlimit="10"/>
<path d="M58.263 83.0096L58.325 79.9709L61.3637 79.9089V76.9322L64.4024 76.8702L64.4644 73.8315" stroke="#9FA8ED" stroke-width="0.620139" stroke-miterlimit="10"/>
<path d="M58.9442 110.792C59.6292 110.792 60.1845 110.236 60.1845 109.551C60.1845 108.866 59.6292 108.311 58.9442 108.311C58.2592 108.311 57.7039 108.866 57.7039 109.551C57.7039 110.236 58.2592 110.792 58.9442 110.792Z" stroke="#9FA8ED" stroke-width="0.620139" stroke-miterlimit="10"/>
<path d="M86.7271 62.1723C84.2466 60.6839 77.9832 62.9785 75.1925 66.3272C71.2857 70.9782 74.3243 78.4819 77.8591 79.1021C82.0141 79.8462 88.5255 71.5364 88.1534 65.1489C88.0914 63.9087 87.5953 62.6684 86.7271 62.1723Z" fill="#EFF1FE"/>
<path d="M94.8493 95.2256L90.2603 132.744C90.2603 132.868 90.2603 132.93 90.2603 133.054H93.423L99.7484 95.2256H94.8493Z" fill="#FFC7BD"/>
<path d="M108.305 95.2256H103.096L102.91 108.745L104.274 132.992V133.054H107.499L107.313 108.869L108.305 95.2256Z" fill="#FFC7BD"/>
<path d="M103.903 133.426V134.915H109.05C109.299 134.915 109.547 134.729 109.547 134.419C109.547 134.233 109.423 134.109 109.299 133.985L107.438 132.992H104.275C104.089 132.992 103.903 133.178 103.903 133.426Z" fill="#40327A"/>
<path d="M92.9888 132.992H90.1982L88.3378 133.985C88.2138 134.047 88.0898 134.233 88.0898 134.419C88.0898 134.667 88.2758 134.915 88.5859 134.915H93.733V133.55C93.733 133.24 93.485 132.992 93.1749 132.992C93.1129 132.992 92.9888 133.054 92.9888 132.992Z" fill="#40327A"/>
<path d="M98.075 68.188L99.0052 60.0642L108.617 59.258L106.633 68.9322L98.075 68.188Z" fill="#9FA8ED"/>
<path d="M105.715 61.0937L101.02 60.6793L100.36 68.1537L105.055 68.5681L105.715 61.0937Z" fill="#FFC7BD"/>
<path d="M108.554 58.3283C108.554 57.9563 108.43 57.5842 108.306 57.2741L105.144 57.3981C104.275 57.3981 103.531 57.0881 102.973 56.5299L103.097 60.6849C103.097 61.305 103.655 61.8011 104.275 61.8011L108.802 61.6151L108.616 59.2586L108.554 58.3283Z" fill="#FFC7BD"/>
<path d="M105.145 55.1031H103.78C103.036 55.1031 102.416 55.5992 102.168 56.2194V56.2814V56.3434L100.99 59.4441C100.431 59.5061 99.9974 60.0022 100.059 60.5603C100.121 61.1184 100.618 61.5525 101.176 61.4905L102.23 62.5448V63.599C102.292 65.3974 103.78 66.7617 105.579 66.6377L107.935 66.4516C108.679 66.3896 109.237 65.7075 109.175 64.9633L108.617 58.0178C108.369 56.1573 106.881 55.0411 105.145 55.1031Z" fill="#FFC7BD"/>
<path d="M100.928 59.4441C101.548 59.4441 101.982 59.8782 102.044 60.4363V60.7464L102.168 63.9711C102.23 65.5214 103.532 66.6997 105.021 66.6377H105.455L107.749 66.5757C108.555 66.5757 109.175 65.8935 109.051 65.0873L108.927 63.723V63.413L108.803 61.7386L104.276 61.9246C103.656 61.9246 103.098 61.4285 103.098 60.8084L103.222 56.6534C103.222 56.3434 100.804 55.5372 100.866 57.4596C100.866 57.3356 100.369 59.4441 100.928 59.4441Z" fill="url(#paint0_linear_1_543)"/>
<path d="M108.617 58.6999C108.617 58.4519 108.555 58.2038 108.493 57.9557C108.431 57.7077 108.431 57.5216 108.369 57.2736C108.369 57.2116 108.369 57.2116 108.307 57.1496C108.245 57.0875 108.121 57.0875 107.997 57.0875C107.873 57.0875 107.749 57.0875 107.687 57.0875C107.501 57.0875 107.315 57.0875 107.129 57.0875C106.757 57.0875 106.385 57.0875 106.013 57.0875C105.331 57.0875 104.648 57.1496 103.966 57.2116C103.718 57.2116 103.408 57.2736 103.222 57.3976C102.85 57.7077 102.726 58.3278 102.602 58.6999C102.602 58.7619 102.478 59.072 102.416 59.32C100.804 59.4441 99.4393 58.2038 99.3152 56.6534V56.4674C99.3152 56.4054 99.3152 56.3434 99.3152 56.3434C99.2532 54.793 100.431 53.4907 101.982 53.3667L102.478 53.3047L106.695 52.9946H106.943C108.307 52.8706 109.548 53.8008 109.92 55.0411C109.982 55.2271 110.044 55.4132 110.044 55.6612V55.8473C110.168 57.0875 109.548 58.1418 108.617 58.6999Z" fill="#E4ECFF"/>
<path d="M112.71 85.2418C111.47 85.862 109.982 85.4899 109.237 84.3116L103.842 75.5057C103.346 74.6995 103.284 73.6452 103.78 72.8391L105.455 69.7384C106.013 68.8702 107.067 68.4981 108.059 68.8082C108.741 69.0562 109.299 69.6143 109.548 70.2965L113.889 82.0791C114.385 83.2574 113.826 84.6217 112.71 85.2418Z" fill="#9FA8ED"/>
<path d="M108.432 91.9396L110.045 71.413C110.169 69.9247 108.99 68.6224 107.44 68.5604L96.5255 68.3743C94.9131 68.3743 93.6108 69.6766 93.6728 71.289L94.8511 91.5675H94.7891L90.076 131.318C90.014 131.629 90.2621 131.877 90.5721 131.877L100.556 131.132L109.052 132.125C109.672 132.187 110.231 131.691 110.169 131.07L108.432 91.9396Z" fill="#9FA8ED"/>
<path opacity="0.3" d="M96.0905 131.442L96.9587 120.714L97.0827 131.318L96.0905 131.442Z" fill="#1B3294"/>
<path opacity="0.3" d="M96.6496 121.024L91.3164 120.9L91.0063 123.814L96.6496 121.024Z" fill="#1B3294"/>
<path opacity="0.3" d="M102.354 131.132L100.866 113.024L100.68 131.008L102.354 131.132Z" fill="#1B3294"/>
<path d="M104.152 57.2116C103.904 57.2116 103.532 57.3976 103.284 57.5216C102.912 57.8317 102.788 58.4518 102.664 58.8859C102.664 58.948 102.54 59.258 102.478 59.5061L100.183 73.8313C100.121 74.2034 99.6253 74.2034 99.5013 73.8933L98.5711 71.1027L96.3386 68.064L99.3152 57.0875C99.3152 56.9015 99.3152 56.7155 99.3152 56.5294C99.5633 54.669 105.517 57.0255 104.152 57.2116Z" fill="#E4ECFF"/>
<path d="M109.982 56.2193L99.5013 56.7775C99.3153 56.7775 99.1912 56.6534 99.1912 56.4674C99.1912 56.2814 99.3153 56.1573 99.5013 56.1573L109.982 55.5992C110.168 55.5992 110.292 55.7232 110.292 55.9093C110.292 56.0953 110.168 56.2193 109.982 56.2193Z" fill="url(#paint1_linear_1_543)"/>
<path d="M110.603 101.056C110.541 100.746 110.603 100.498 110.665 100.249L112.029 97.955L111.967 98.265L112.091 97.5209L113.827 97.2108V98.203C113.827 98.265 113.827 98.265 113.827 98.265L113.579 100.932C113.517 101.614 113.021 102.172 112.339 102.296C111.533 102.42 110.727 101.862 110.603 101.056Z" fill="#FFC7BD"/>
<path d="M113.888 98.0167L113.951 97.0865L112.028 97.0245V98.0167H113.888Z" fill="white"/>
<path d="M113.951 97.2105L111.966 97.3346L109.299 84.5597C108.989 83.1334 109.92 81.7071 111.408 81.459C112.958 81.211 114.385 82.3892 114.447 84.0016L113.951 97.2105Z" fill="#9FA8ED"/>
<path d="M106.999 63.9019C107.169 63.8831 107.283 63.647 107.253 63.3747C107.223 63.1023 107.06 62.8968 106.89 62.9156C106.72 62.9344 106.606 63.1704 106.636 63.4428C106.666 63.7151 106.829 63.9207 106.999 63.9019Z" fill="white"/>
<path opacity="0.3" d="M99.1292 75.4437L93.858 76.6219L94.6022 89.5828L99.1292 75.4437Z" fill="#1B3294"/>
<path d="M99.6253 120.962H81.5173C79.9049 120.962 78.5406 119.66 78.5406 117.985V106.451C78.5406 104.838 79.8429 103.474 81.5173 103.474H99.6253C101.238 103.474 102.602 104.776 102.602 106.451V117.923C102.602 119.598 101.238 120.962 99.6253 120.962Z" fill="url(#paint2_linear_1_543)"/>
<path d="M94.0431 104.032H92.9268V102.854C92.9268 102.358 92.4927 101.924 91.9966 101.924H89.206C88.7099 101.924 88.2758 102.358 88.2758 102.854V103.97H87.1595V102.854C87.1595 101.738 88.0898 100.807 89.206 100.807H91.9966C93.1129 100.807 94.0431 101.738 94.0431 102.854V104.032Z" fill="url(#paint3_linear_1_543)"/>
<path d="M100.06 112.466H81.1461C79.7198 112.466 78.6036 111.35 78.6036 109.924V106.079C78.6036 104.652 79.7198 103.536 81.1461 103.536H100.06C101.487 103.536 102.603 104.652 102.603 106.079V109.924C102.603 111.35 101.487 112.466 100.06 112.466Z" fill="url(#paint4_linear_1_543)"/>
<path d="M90.9434 113.706H90.1992C89.7031 113.706 89.269 113.272 89.269 112.776V112.032C89.269 111.536 89.7031 111.102 90.1992 111.102H90.9434C91.4395 111.102 91.8736 111.536 91.8736 112.032V112.776C91.8736 113.272 91.5015 113.706 90.9434 113.706Z" fill="url(#paint5_linear_1_543)"/>
<path d="M91.9356 101.924C92.0596 101.676 92.0596 101.365 92.0596 101.055L91.1914 98.5128V98.8229L91.2534 98.0787L89.6411 97.3966L89.393 98.3888V98.4508L89.0209 101.117C88.9589 101.8 89.269 102.42 89.8891 102.73C90.6953 103.04 91.6255 102.668 91.9356 101.924Z" fill="#FFC7BD"/>
<path d="M91.4395 98.3268L91.6255 97.2105L89.269 97.2726L89.331 98.3888L91.4395 98.3268Z" fill="white"/>
<path d="M90.014 85.3665C91.1922 86.0486 92.7426 85.6145 93.4247 84.4983L98.944 75.7543C99.4401 74.9481 99.5021 73.8939 99.068 73.0877L97.4556 69.987C96.9595 69.1188 95.8433 68.6847 94.851 69.0568C94.1689 69.3049 93.6108 69.801 93.3627 70.4831L88.8357 82.2037C88.3396 83.382 88.8357 84.7463 90.014 85.3665Z" fill="#9FA8ED"/>
<path d="M89.084 97.3967L91.8126 97.2727L93.549 84.3738C93.7351 82.8854 92.6808 81.5831 91.2545 81.4591C89.7042 81.3351 88.3399 82.5754 88.4019 84.1877L89.084 97.3967Z" fill="#9FA8ED"/>
<path d="M57.2698 135.349H165.36V134.915H57.2698V135.349Z" fill="#EEF3FF"/>
<path d="M140.244 60.3743H126.849V72.8391H140.244V60.3743Z" fill="white" stroke="#C7CDF9" stroke-width="0.620139" stroke-miterlimit="10"/>
<path d="M131.003 66.5134L132.926 68.3738L136.647 64.653" stroke="#FF809F" stroke-width="1.24028" stroke-miterlimit="10" stroke-linecap="round" stroke-linejoin="round"/>
</g>
<path d="M59.8586 171.155H58.2667L57.0332 166.326L55.8103 171.155H54.2184L52.2048 164.123H53.8811L55.1145 169.204L56.4534 164.123H57.6236L58.952 169.204L60.1749 164.123H61.8617L59.8586 171.155ZM67.3223 171.155H65.9834V168.055C65.9834 167.718 65.9026 167.479 65.7409 167.338C65.5793 167.198 65.3438 167.127 65.0346 167.127C64.5637 167.127 64.1771 167.328 63.8749 167.728V171.155H62.536V164.123H63.8749V166.727C64.0576 166.509 64.3036 166.323 64.6129 166.168C64.9291 166.013 65.2806 165.936 65.6671 165.936C66.2153 165.936 66.6265 166.077 66.9006 166.358C67.1817 166.639 67.3223 167.033 67.3223 167.539V171.155ZM68.4722 173.147L68.6725 171.945C68.799 172.002 68.9396 172.03 69.0942 172.03C69.4526 172.03 69.6881 171.907 69.8005 171.661L69.9903 171.228L67.924 166.063H69.3578L70.6861 169.605L72.0144 166.063H73.4587L71.0656 171.987C70.8899 172.437 70.6439 172.75 70.3277 172.926C70.0114 173.108 69.6143 173.207 69.1364 173.221C68.8904 173.221 68.669 173.196 68.4722 173.147ZM79.284 171.281C78.0329 171.281 77.042 170.909 76.311 170.164L77.1228 169.025C77.7272 169.658 78.4722 169.974 79.3578 169.974C79.7443 169.974 80.043 169.9 80.2539 169.752C80.4717 169.598 80.5807 169.412 80.5807 169.194C80.5807 169.004 80.4788 168.846 80.275 168.719C80.0782 168.593 79.8287 168.501 79.5264 168.445C79.2313 168.389 78.908 168.308 78.5566 168.203C78.2051 168.097 77.8783 167.978 77.5761 167.844C77.2809 167.711 77.0314 167.5 76.8276 167.212C76.6308 166.924 76.5324 166.572 76.5324 166.158C76.5324 165.553 76.7749 165.047 77.2598 164.639C77.7448 164.225 78.3914 164.017 79.1996 164.017C80.3171 164.017 81.2308 164.344 81.9406 164.998L81.1078 166.094C80.5526 165.581 79.8708 165.325 79.0626 165.325C78.7463 165.325 78.5003 165.388 78.3246 165.514C78.1489 165.641 78.0611 165.813 78.0611 166.031C78.0611 166.2 78.1595 166.344 78.3562 166.463C78.5601 166.576 78.8096 166.66 79.1048 166.716C79.407 166.772 79.7303 166.857 80.0747 166.969C80.4261 167.075 80.7494 167.198 81.0445 167.338C81.3468 167.472 81.5963 167.686 81.7931 167.981C81.9969 168.27 82.0988 168.617 82.0988 169.025C82.0988 169.7 81.8563 170.244 81.3714 170.659C80.8934 171.074 80.1976 171.281 79.284 171.281ZM87.8613 171.155H86.5225V168.055C86.5225 167.718 86.4416 167.479 86.28 167.338C86.1183 167.198 85.8829 167.127 85.5736 167.127C85.1028 167.127 84.7162 167.328 84.414 167.728V171.155H83.0751V164.123H84.414V166.727C84.5967 166.509 84.8427 166.323 85.152 166.168C85.4682 166.013 85.8196 165.936 86.2062 165.936C86.7544 165.936 87.1655 166.077 87.4396 166.358C87.7208 166.639 87.8613 167.033 87.8613 167.539V171.155ZM93.5129 170.512C93.0209 171.025 92.3673 171.281 91.552 171.281C90.7367 171.281 90.0831 171.025 89.5911 170.512C89.1062 169.991 88.8637 169.355 88.8637 168.603C88.8637 167.851 89.1062 167.219 89.5911 166.706C90.0831 166.193 90.7367 165.936 91.552 165.936C92.3673 165.936 93.0209 166.193 93.5129 166.706C94.0048 167.219 94.2508 167.851 94.2508 168.603C94.2508 169.355 94.0048 169.991 93.5129 170.512ZM90.6032 169.668C90.8351 169.949 91.1514 170.09 91.552 170.09C91.9526 170.09 92.2689 169.949 92.5008 169.668C92.7398 169.38 92.8592 169.025 92.8592 168.603C92.8592 168.189 92.7398 167.841 92.5008 167.56C92.2689 167.271 91.9526 167.127 91.552 167.127C91.1514 167.127 90.8351 167.271 90.6032 167.56C90.3712 167.841 90.2553 168.189 90.2553 168.603C90.2553 169.025 90.3712 169.38 90.6032 169.668ZM100.02 171.155H98.6809V170.512C98.2241 171.025 97.6267 171.281 96.8887 171.281C96.3405 171.281 95.9294 171.141 95.6553 170.859C95.3812 170.578 95.2441 170.185 95.2441 169.679V166.063H96.583V169.152C96.583 169.777 96.8958 170.09 97.5213 170.09C97.9922 170.09 98.3787 169.897 98.6809 169.51V166.063H100.02V171.155ZM102.688 171.155H101.349V164.123H102.688V171.155ZM108.865 171.155H107.516V170.501C107.101 171.021 106.577 171.281 105.945 171.281C105.284 171.281 104.743 171.046 104.321 170.575C103.9 170.097 103.689 169.443 103.689 168.614C103.689 167.799 103.9 167.149 104.321 166.664C104.743 166.179 105.284 165.936 105.945 165.936C106.592 165.936 107.115 166.196 107.516 166.716V164.123H108.865V171.155ZM106.356 170.09C106.581 170.09 106.802 170.037 107.02 169.932C107.238 169.819 107.403 169.679 107.516 169.51V167.707C107.403 167.539 107.238 167.402 107.02 167.296C106.802 167.184 106.581 167.127 106.356 167.127C105.977 167.127 105.667 167.264 105.428 167.539C105.189 167.813 105.07 168.171 105.07 168.614C105.07 169.05 105.189 169.405 105.428 169.679C105.667 169.953 105.977 170.09 106.356 170.09ZM116.38 171.155H114.883V168.277L112.173 164.123H113.881L115.631 166.948L117.36 164.123H119.068L116.38 168.277V171.155ZM122.7 170.512C122.208 171.025 121.554 171.281 120.739 171.281C119.924 171.281 119.27 171.025 118.778 170.512C118.293 169.991 118.051 169.355 118.051 168.603C118.051 167.851 118.293 167.219 118.778 166.706C119.27 166.193 119.924 165.936 120.739 165.936C121.554 165.936 122.208 166.193 122.7 166.706C123.192 167.219 123.438 167.851 123.438 168.603C123.438 169.355 123.192 169.991 122.7 170.512ZM119.79 169.668C120.022 169.949 120.338 170.09 120.739 170.09C121.14 170.09 121.456 169.949 121.688 169.668C121.927 169.38 122.046 169.025 122.046 168.603C122.046 168.189 121.927 167.841 121.688 167.56C121.456 167.271 121.14 167.127 120.739 167.127C120.338 167.127 120.022 167.271 119.79 167.56C119.558 167.841 119.442 168.189 119.442 168.603C119.442 169.025 119.558 169.38 119.79 169.668ZM129.207 171.155H127.868V170.512C127.411 171.025 126.814 171.281 126.076 171.281C125.528 171.281 125.116 171.141 124.842 170.859C124.568 170.578 124.431 170.185 124.431 169.679V166.063H125.77V169.152C125.77 169.777 126.083 170.09 126.708 170.09C127.179 170.09 127.566 169.897 127.868 169.51V166.063H129.207V171.155ZM136.396 171.155H134.889V165.441H132.833V164.123H138.442V165.441H136.396V171.155ZM139.988 171.155H138.649V166.063H139.988V166.758C140.178 166.519 140.42 166.323 140.715 166.168C141.01 166.013 141.309 165.936 141.611 165.936V167.243C141.52 167.222 141.397 167.212 141.242 167.212C141.018 167.212 140.779 167.268 140.526 167.38C140.273 167.493 140.093 167.63 139.988 167.792V171.155ZM147.224 171.155H145.885V170.512C145.428 171.025 144.831 171.281 144.093 171.281C143.544 171.281 143.133 171.141 142.859 170.859C142.585 170.578 142.448 170.185 142.448 169.679V166.063H143.787V169.152C143.787 169.777 144.1 170.09 144.725 170.09C145.196 170.09 145.583 169.897 145.885 169.51V166.063H147.224V171.155ZM150.387 171.281C149.945 171.281 149.519 171.211 149.112 171.07C148.711 170.93 148.377 170.736 148.11 170.49L148.69 169.552C148.887 169.735 149.154 169.897 149.491 170.037C149.829 170.178 150.148 170.248 150.451 170.248C150.732 170.248 150.943 170.199 151.083 170.1C151.231 170.002 151.305 169.868 151.305 169.7C151.305 169.573 151.227 169.471 151.073 169.394C150.925 169.31 150.739 169.25 150.514 169.215C150.296 169.18 150.054 169.127 149.787 169.057C149.526 168.986 149.284 168.902 149.059 168.804C148.841 168.705 148.655 168.551 148.5 168.34C148.353 168.122 148.279 167.855 148.279 167.539C148.279 167.089 148.465 166.709 148.838 166.4C149.21 166.091 149.72 165.936 150.366 165.936C151.154 165.936 151.839 166.168 152.422 166.632L151.884 167.549C151.723 167.38 151.505 167.24 151.231 167.127C150.964 167.015 150.679 166.959 150.377 166.959C150.138 166.959 149.945 167.008 149.797 167.106C149.649 167.198 149.576 167.317 149.576 167.465C149.576 167.577 149.649 167.672 149.797 167.749C149.945 167.82 150.131 167.872 150.356 167.908C150.581 167.943 150.823 167.999 151.083 168.076C151.343 168.147 151.586 168.234 151.811 168.34C152.036 168.438 152.222 168.6 152.369 168.825C152.517 169.05 152.591 169.324 152.591 169.647C152.591 170.125 152.394 170.519 152 170.828C151.614 171.13 151.076 171.281 150.387 171.281ZM155.285 171.281C154.814 171.281 154.456 171.162 154.21 170.923C153.964 170.684 153.841 170.339 153.841 169.89V167.233H152.997V166.063H153.841V164.671H155.19V166.063H156.223V167.233H155.19V169.531C155.19 169.693 155.232 169.826 155.317 169.932C155.401 170.037 155.513 170.09 155.654 170.09C155.865 170.09 156.019 170.041 156.118 169.942L156.403 170.954C156.157 171.172 155.784 171.281 155.285 171.281ZM161.365 171.155H159.868V164.123H161.365V171.155ZM164.438 171.281C163.967 171.281 163.608 171.162 163.362 170.923C163.116 170.684 162.993 170.339 162.993 169.89V167.233H162.15V166.063H162.993V164.671H164.343V166.063H165.376V167.233H164.343V169.531C164.343 169.693 164.385 169.826 164.469 169.932C164.553 170.037 164.666 170.09 164.806 170.09C165.017 170.09 165.172 170.041 165.27 169.942L165.555 170.954C165.309 171.172 164.937 171.281 164.438 171.281ZM167.504 169.004C167.272 168.751 167.156 168.442 167.156 168.076C167.156 167.795 167.237 167.542 167.399 167.317C167.56 167.092 167.736 166.924 167.926 166.811C168.116 166.699 168.291 166.565 168.453 166.411C168.615 166.256 168.695 166.101 168.695 165.947C168.695 165.771 168.625 165.627 168.485 165.514C168.351 165.402 168.147 165.346 167.873 165.346C167.374 165.346 166.942 165.564 166.576 165.999L165.723 165.04C166.306 164.358 167.075 164.017 168.031 164.017C168.706 164.017 169.24 164.172 169.634 164.481C170.027 164.784 170.224 165.184 170.224 165.683C170.224 165.964 170.164 166.217 170.045 166.442C169.925 166.667 169.778 166.85 169.602 166.99C169.433 167.131 169.261 167.261 169.086 167.38C168.91 167.5 168.762 167.63 168.643 167.771C168.523 167.911 168.464 168.062 168.464 168.224C168.464 168.407 168.527 168.554 168.653 168.667L167.504 169.004ZM168.611 171.018C168.442 171.186 168.242 171.271 168.01 171.271C167.778 171.271 167.578 171.186 167.409 171.018C167.241 170.849 167.156 170.649 167.156 170.417C167.156 170.185 167.241 169.984 167.409 169.816C167.578 169.647 167.778 169.563 168.01 169.563C168.242 169.563 168.442 169.647 168.611 169.816C168.78 169.984 168.864 170.185 168.864 170.417C168.864 170.649 168.78 170.849 168.611 171.018Z" fill="#0D0F52"/>
<path opacity="0.5" d="M66.266 201.518H63.6267V195.728H66.2053C66.703 195.728 67.0966 195.864 67.386 196.136C67.6812 196.408 67.8288 196.764 67.8288 197.204C67.8288 197.551 67.7304 197.846 67.5336 198.089C67.3368 198.326 67.0966 198.474 66.813 198.532C67.1198 198.578 67.3831 198.74 67.6031 199.018C67.8288 199.296 67.9417 199.608 67.9417 199.956C67.9417 200.425 67.7912 200.804 67.4902 201.093C67.195 201.377 66.787 201.518 66.266 201.518ZM66.0837 198.237C66.4021 198.237 66.648 198.15 66.8217 197.976C66.9953 197.803 67.0821 197.58 67.0821 197.308C67.0821 197.036 66.9924 196.813 66.813 196.639C66.6394 196.46 66.3963 196.37 66.0837 196.37H64.3473V198.237H66.0837ZM66.1184 200.876C66.4541 200.876 66.7175 200.786 66.9085 200.607C67.0995 200.427 67.195 200.184 67.195 199.878C67.195 199.594 67.0995 199.357 66.9085 199.166C66.7233 198.975 66.4599 198.879 66.1184 198.879H64.3473V200.876H66.1184ZM71.0837 201.623C70.4586 201.623 69.9464 201.42 69.547 201.015C69.1476 200.604 68.9479 200.072 68.9479 199.417C68.9479 198.804 69.1447 198.286 69.5383 197.863C69.9319 197.435 70.4239 197.221 71.0142 197.221C71.6336 197.221 72.1226 197.435 72.4815 197.863C72.8461 198.286 73.0285 198.821 73.0285 199.47V199.635H69.6338C69.6628 200.045 69.8132 200.39 70.0853 200.668C70.3573 200.945 70.7104 201.084 71.1445 201.084C71.6654 201.084 72.0966 200.908 72.4381 200.555L72.7506 200.98C72.3223 201.409 71.7667 201.623 71.0837 201.623ZM72.386 199.157C72.3802 198.798 72.2587 198.477 72.0214 198.193C71.784 197.904 71.4455 197.759 71.0056 197.759C70.5888 197.759 70.2589 197.901 70.0158 198.185C69.7785 198.468 69.6512 198.792 69.6338 199.157H72.386ZM76.0626 201.623C75.4433 201.623 74.9397 201.414 74.5519 200.998C74.1641 200.575 73.9702 200.048 73.9702 199.417C73.9702 198.787 74.1641 198.263 74.5519 197.846C74.9397 197.429 75.4433 197.221 76.0626 197.221C76.7108 197.221 77.2231 197.464 77.5993 197.95L77.1652 198.35C76.899 197.985 76.543 197.803 76.0973 197.803C75.6574 197.803 75.3044 197.953 75.0381 198.254C74.7777 198.555 74.6474 198.943 74.6474 199.417C74.6474 199.892 74.7777 200.283 75.0381 200.59C75.3044 200.89 75.6574 201.041 76.0973 201.041C76.5372 201.041 76.8932 200.859 77.1652 200.494L77.5993 200.893C77.2231 201.38 76.7108 201.623 76.0626 201.623ZM81.9152 201.518H81.2641V201.041C80.911 201.429 80.448 201.623 79.875 201.623C79.4872 201.623 79.1457 201.498 78.8505 201.249C78.5553 201 78.4077 200.662 78.4077 200.234C78.4077 199.794 78.5524 199.455 78.8418 199.218C79.137 198.975 79.4814 198.853 79.875 198.853C80.4711 198.853 80.9342 199.044 81.2641 199.426V198.671C81.2641 198.393 81.1657 198.176 80.9689 198.02C80.7721 197.863 80.5175 197.785 80.2049 197.785C79.7129 197.785 79.2846 197.979 78.92 198.367L78.6161 197.915C79.0618 197.452 79.6203 197.221 80.2917 197.221C80.7721 197.221 81.1628 197.337 81.4638 197.568C81.7648 197.8 81.9152 198.156 81.9152 198.636V201.518ZM80.1094 201.154C80.6303 201.154 81.0152 200.98 81.2641 200.633V199.843C81.0152 199.496 80.6303 199.322 80.1094 199.322C79.8084 199.322 79.5595 199.409 79.3628 199.582C79.1717 199.75 79.0762 199.97 79.0762 200.242C79.0762 200.508 79.1717 200.728 79.3628 200.902C79.5595 201.07 79.8084 201.154 80.1094 201.154ZM86.8322 201.518H86.1811V200.928C86.0074 201.125 85.7875 201.29 85.5212 201.423C85.2608 201.556 84.983 201.623 84.6878 201.623C83.7964 201.623 83.3507 201.177 83.3507 200.286V197.325H84.0019V200.086C84.0019 200.433 84.08 200.679 84.2363 200.824C84.3984 200.969 84.6328 201.041 84.9395 201.041C85.1826 201.041 85.4171 200.98 85.6428 200.859C85.8743 200.737 86.0537 200.587 86.1811 200.407V197.325H86.8322V201.518ZM89.5912 201.623C88.8793 201.623 88.3149 201.403 87.8982 200.963L88.2368 200.494C88.3815 200.662 88.5783 200.804 88.8272 200.919C89.0818 201.035 89.3452 201.093 89.6172 201.093C89.9298 201.093 90.1729 201.027 90.3465 200.893C90.5201 200.76 90.607 200.587 90.607 200.372C90.607 200.187 90.5172 200.043 90.3378 199.938C90.1584 199.828 89.9413 199.747 89.6867 199.695C89.4378 199.637 89.186 199.574 88.9313 199.504C88.6767 199.429 88.4596 199.305 88.2802 199.131C88.1008 198.952 88.0111 198.717 88.0111 198.428C88.0111 198.086 88.15 197.8 88.4278 197.568C88.7114 197.337 89.0934 197.221 89.5738 197.221C90.2047 197.221 90.7227 197.424 91.1279 197.829L90.824 198.28C90.5288 197.927 90.1121 197.751 89.5738 197.751C89.2902 197.751 89.0645 197.814 88.8966 197.942C88.7288 198.063 88.6448 198.219 88.6448 198.41C88.6448 198.578 88.7346 198.711 88.914 198.81C89.0934 198.902 89.3076 198.978 89.5564 199.035C89.8111 199.088 90.0658 199.151 90.3205 199.226C90.5751 199.302 90.7922 199.435 90.9716 199.626C91.151 199.811 91.2407 200.054 91.2407 200.355C91.2407 200.726 91.096 201.029 90.8066 201.267C90.5172 201.504 90.1121 201.623 89.5912 201.623ZM94.3215 201.623C93.6964 201.623 93.1841 201.42 92.7848 201.015C92.3854 200.604 92.1857 200.072 92.1857 199.417C92.1857 198.804 92.3825 198.286 92.7761 197.863C93.1697 197.435 93.6616 197.221 94.252 197.221C94.8713 197.221 95.3604 197.435 95.7193 197.863C96.0839 198.286 96.2662 198.821 96.2662 199.47V199.635H92.8716C92.9005 200.045 93.051 200.39 93.3231 200.668C93.5951 200.945 93.9482 201.084 94.3822 201.084C94.9032 201.084 95.3344 200.908 95.6759 200.555L95.9884 200.98C95.5601 201.409 95.0045 201.623 94.3215 201.623ZM95.6238 199.157C95.618 198.798 95.4964 198.477 95.2591 198.193C95.0218 197.904 94.6832 197.759 94.2433 197.759C93.8266 197.759 93.4967 197.901 93.2536 198.185C93.0163 198.468 92.889 198.792 92.8716 199.157H95.6238ZM103.154 200.989C102.777 201.411 102.277 201.623 101.652 201.623C101.026 201.623 100.523 201.411 100.141 200.989C99.7647 200.566 99.5766 200.043 99.5766 199.417C99.5766 198.792 99.7647 198.271 100.141 197.855C100.523 197.432 101.026 197.221 101.652 197.221C102.277 197.221 102.777 197.432 103.154 197.855C103.536 198.271 103.727 198.792 103.727 199.417C103.727 200.043 103.536 200.566 103.154 200.989ZM100.627 200.572C100.882 200.885 101.223 201.041 101.652 201.041C102.08 201.041 102.418 200.885 102.667 200.572C102.916 200.254 103.041 199.869 103.041 199.417C103.041 198.966 102.916 198.584 102.667 198.271C102.418 197.959 102.08 197.803 101.652 197.803C101.223 197.803 100.882 197.962 100.627 198.28C100.378 198.593 100.254 198.972 100.254 199.417C100.254 199.869 100.378 200.254 100.627 200.572ZM105.752 201.518H105.101V197.898H104.406V197.325H105.101V197.004C105.101 196.576 105.208 196.243 105.422 196.005C105.642 195.762 105.94 195.641 106.316 195.641C106.675 195.641 106.97 195.748 107.202 195.962L106.932 196.387C106.776 196.249 106.603 196.179 106.412 196.179C106.197 196.179 106.032 196.251 105.917 196.396C105.807 196.535 105.752 196.738 105.752 197.004V197.325H106.603V197.898H105.752V201.518ZM110.935 201.623C110.628 201.623 110.397 201.539 110.24 201.371C110.084 201.203 110.006 200.96 110.006 200.642V197.898H109.311V197.325H110.006V196.179H110.657V197.325H111.508V197.898H110.657V200.503C110.657 200.665 110.692 200.795 110.761 200.893C110.837 200.992 110.944 201.041 111.083 201.041C111.274 201.041 111.421 200.983 111.525 200.867L111.716 201.354C111.525 201.533 111.265 201.623 110.935 201.623ZM116.048 201.518H115.397V198.758C115.397 198.41 115.316 198.164 115.154 198.02C114.992 197.875 114.757 197.803 114.451 197.803C114.213 197.803 113.979 197.866 113.747 197.994C113.522 198.121 113.342 198.274 113.209 198.454V201.518H112.558V195.728H113.209V197.933C113.371 197.742 113.588 197.577 113.86 197.438C114.132 197.293 114.416 197.221 114.711 197.221C115.603 197.221 116.048 197.667 116.048 198.558V201.518ZM117.8 196.726C117.684 196.726 117.583 196.686 117.496 196.605C117.409 196.518 117.366 196.414 117.366 196.292C117.366 196.17 117.409 196.066 117.496 195.979C117.583 195.893 117.684 195.849 117.8 195.849C117.921 195.849 118.026 195.893 118.112 195.979C118.199 196.066 118.243 196.17 118.243 196.292C118.243 196.414 118.199 196.518 118.112 196.605C118.026 196.686 117.921 196.726 117.8 196.726ZM118.13 201.518H117.479V197.325H118.13V201.518ZM120.887 201.623C120.175 201.623 119.611 201.403 119.194 200.963L119.533 200.494C119.678 200.662 119.874 200.804 120.123 200.919C120.378 201.035 120.641 201.093 120.913 201.093C121.226 201.093 121.469 201.027 121.643 200.893C121.816 200.76 121.903 200.587 121.903 200.372C121.903 200.187 121.813 200.043 121.634 199.938C121.454 199.828 121.237 199.747 120.983 199.695C120.734 199.637 120.482 199.574 120.227 199.504C119.973 199.429 119.756 199.305 119.576 199.131C119.397 198.952 119.307 198.717 119.307 198.428C119.307 198.086 119.446 197.8 119.724 197.568C120.007 197.337 120.389 197.221 120.87 197.221C121.501 197.221 122.019 197.424 122.424 197.829L122.12 198.28C121.825 197.927 121.408 197.751 120.87 197.751C120.586 197.751 120.361 197.814 120.193 197.942C120.025 198.063 119.941 198.219 119.941 198.41C119.941 198.578 120.031 198.711 120.21 198.81C120.389 198.902 120.604 198.978 120.852 199.035C121.107 199.088 121.362 199.151 121.616 199.226C121.871 199.302 122.088 199.435 122.268 199.626C122.447 199.811 122.537 200.054 122.537 200.355C122.537 200.726 122.392 201.029 122.103 201.267C121.813 201.504 121.408 201.623 120.887 201.623ZM129.366 201.518H128.715V201.041C128.362 201.429 127.899 201.623 127.326 201.623C126.938 201.623 126.597 201.498 126.302 201.249C126.007 201 125.859 200.662 125.859 200.234C125.859 199.794 126.004 199.455 126.293 199.218C126.588 198.975 126.933 198.853 127.326 198.853C127.922 198.853 128.385 199.044 128.715 199.426V198.671C128.715 198.393 128.617 198.176 128.42 198.02C128.223 197.863 127.969 197.785 127.656 197.785C127.164 197.785 126.736 197.979 126.371 198.367L126.067 197.915C126.513 197.452 127.072 197.221 127.743 197.221C128.223 197.221 128.614 197.337 128.915 197.568C129.216 197.8 129.366 198.156 129.366 198.636V201.518ZM127.561 201.154C128.082 201.154 128.466 200.98 128.715 200.633V199.843C128.466 199.496 128.082 199.322 127.561 199.322C127.26 199.322 127.011 199.409 126.814 199.582C126.623 199.75 126.527 199.97 126.527 200.242C126.527 200.508 126.623 200.728 126.814 200.902C127.011 201.07 127.26 201.154 127.561 201.154ZM134.283 201.518H133.632V198.775C133.632 198.422 133.551 198.173 133.389 198.028C133.227 197.878 132.996 197.803 132.695 197.803C132.452 197.803 132.214 197.866 131.983 197.994C131.757 198.121 131.58 198.274 131.453 198.454V201.518H130.802V197.325H131.453V197.933C131.615 197.742 131.832 197.577 132.104 197.438C132.376 197.293 132.657 197.221 132.946 197.221C133.838 197.221 134.283 197.672 134.283 198.575V201.518ZM139.404 201.518H138.753V200.893C138.394 201.38 137.922 201.623 137.338 201.623C136.782 201.623 136.33 201.426 135.983 201.032C135.642 200.633 135.471 200.098 135.471 199.426C135.471 198.761 135.642 198.228 135.983 197.829C136.33 197.424 136.782 197.221 137.338 197.221C137.916 197.221 138.388 197.467 138.753 197.959V195.728H139.404V201.518ZM137.494 201.041C137.749 201.041 137.992 200.977 138.223 200.85C138.455 200.723 138.631 200.566 138.753 200.381V198.48C138.631 198.289 138.452 198.13 138.214 198.002C137.983 197.869 137.743 197.803 137.494 197.803C137.083 197.803 136.756 197.956 136.513 198.263C136.27 198.564 136.148 198.952 136.148 199.426C136.148 199.901 136.27 200.289 136.513 200.59C136.756 200.89 137.083 201.041 137.494 201.041ZM144.266 201.623C143.959 201.623 143.728 201.539 143.571 201.371C143.415 201.203 143.337 200.96 143.337 200.642V197.898H142.642V197.325H143.337V196.179H143.988V197.325H144.839V197.898H143.988V200.503C143.988 200.665 144.023 200.795 144.092 200.893C144.167 200.992 144.275 201.041 144.413 201.041C144.604 201.041 144.752 200.983 144.856 200.867L145.047 201.354C144.856 201.533 144.596 201.623 144.266 201.623ZM149.379 201.518H148.728V198.758C148.728 198.41 148.647 198.164 148.485 198.02C148.323 197.875 148.088 197.803 147.782 197.803C147.544 197.803 147.31 197.866 147.078 197.994C146.853 198.121 146.673 198.274 146.54 198.454V201.518H145.889V195.728H146.54V197.933C146.702 197.742 146.919 197.577 147.191 197.438C147.463 197.293 147.747 197.221 148.042 197.221C148.933 197.221 149.379 197.667 149.379 198.558V201.518ZM154.083 201.518H153.431V201.041C153.078 201.429 152.615 201.623 152.042 201.623C151.654 201.623 151.313 201.498 151.018 201.249C150.723 201 150.575 200.662 150.575 200.234C150.575 199.794 150.72 199.455 151.009 199.218C151.304 198.975 151.649 198.853 152.042 198.853C152.638 198.853 153.101 199.044 153.431 199.426V198.671C153.431 198.393 153.333 198.176 153.136 198.02C152.939 197.863 152.685 197.785 152.372 197.785C151.88 197.785 151.452 197.979 151.087 198.367L150.783 197.915C151.229 197.452 151.788 197.221 152.459 197.221C152.939 197.221 153.33 197.337 153.631 197.568C153.932 197.8 154.083 198.156 154.083 198.636V201.518ZM152.277 201.154C152.798 201.154 153.183 200.98 153.431 200.633V199.843C153.183 199.496 152.798 199.322 152.277 199.322C151.976 199.322 151.727 199.409 151.53 199.582C151.339 199.75 151.244 199.97 151.244 200.242C151.244 200.508 151.339 200.728 151.53 200.902C151.727 201.07 151.976 201.154 152.277 201.154ZM156.577 201.623C156.27 201.623 156.039 201.539 155.883 201.371C155.726 201.203 155.648 200.96 155.648 200.642V197.898H154.954V197.325H155.648V196.179H156.299V197.325H157.15V197.898H156.299V200.503C156.299 200.665 156.334 200.795 156.404 200.893C156.479 200.992 156.586 201.041 156.725 201.041C156.916 201.041 157.063 200.983 157.168 200.867L157.359 201.354C157.168 201.533 156.907 201.623 156.577 201.623ZM158.886 201.466C158.794 201.559 158.681 201.605 158.548 201.605C158.414 201.605 158.302 201.559 158.209 201.466C158.116 201.374 158.07 201.261 158.07 201.128C158.07 200.995 158.116 200.882 158.209 200.789C158.302 200.697 158.414 200.65 158.548 200.65C158.681 200.65 158.794 200.697 158.886 200.789C158.979 200.882 159.025 200.995 159.025 201.128C159.025 201.261 158.979 201.374 158.886 201.466ZM57.4897 213.518H56.6649L56.1527 212.234H53.2703L52.758 213.518H51.9333L54.26 207.728H55.1543L57.4897 213.518ZM55.9356 211.591L54.7115 208.474L53.4786 211.591H55.9356ZM61.8324 213.518H61.1813V210.775C61.1813 210.422 61.1003 210.173 60.9382 210.028C60.7761 209.878 60.5446 209.803 60.2436 209.803C60.0006 209.803 59.7632 209.866 59.5317 209.994C59.306 210.121 59.1295 210.274 59.0021 210.454V213.518H58.351V209.325H59.0021V209.933C59.1642 209.742 59.3812 209.577 59.6533 209.438C59.9253 209.293 60.206 209.221 60.4954 209.221C61.3868 209.221 61.8324 209.672 61.8324 210.575V213.518ZM63.0287 215.159L63.1328 214.569C63.237 214.615 63.3557 214.638 63.4888 214.638C63.6393 214.638 63.7637 214.607 63.8621 214.543C63.9605 214.479 64.0444 214.364 64.1139 214.196L64.3917 213.562L62.638 209.325H63.3412L64.739 212.763L66.1281 209.325H66.84L64.739 214.369C64.5075 214.925 64.0965 215.209 63.5062 215.22C63.3325 215.22 63.1734 215.2 63.0287 215.159ZM71.9297 213.518H71.2785L70.1846 210.15L69.0907 213.518H68.4395L67.1025 209.325H67.7797L68.8042 212.668L69.9068 209.325H70.4624L71.565 212.668L72.5895 209.325H73.2667L71.9297 213.518ZM77.4286 213.518H76.7775V213.041C76.4244 213.429 75.9614 213.623 75.3884 213.623C75.0006 213.623 74.6591 213.498 74.3639 213.249C74.0687 213 73.9211 212.662 73.9211 212.234C73.9211 211.794 74.0658 211.455 74.3552 211.218C74.6504 210.975 74.9948 210.853 75.3884 210.853C75.9845 210.853 76.4475 211.044 76.7775 211.426V210.671C76.7775 210.393 76.6791 210.176 76.4823 210.02C76.2855 209.863 76.0308 209.785 75.7183 209.785C75.2263 209.785 74.798 209.979 74.4333 210.367L74.1295 209.915C74.5751 209.452 75.1337 209.221 75.8051 209.221C76.2855 209.221 76.6762 209.337 76.9771 209.568C77.2781 209.8 77.4286 210.156 77.4286 210.636V213.518ZM75.6228 213.154C76.1437 213.154 76.5286 212.98 76.7775 212.633V211.843C76.5286 211.496 76.1437 211.322 75.6228 211.322C75.3218 211.322 75.0729 211.409 74.8761 211.582C74.6851 211.75 74.5896 211.97 74.5896 212.242C74.5896 212.508 74.6851 212.728 74.8761 212.902C75.0729 213.07 75.3218 213.154 75.6228 213.154ZM78.6297 215.159L78.7339 214.569C78.8381 214.615 78.9567 214.638 79.0898 214.638C79.2403 214.638 79.3648 214.607 79.4632 214.543C79.5616 214.479 79.6455 214.364 79.7149 214.196L79.9928 213.562L78.239 209.325H78.9423L80.34 212.763L81.7292 209.325H82.4411L80.34 214.369C80.1085 214.925 79.6976 215.209 79.1072 215.22C78.9336 215.22 78.7744 215.2 78.6297 215.159ZM85.9403 208.726C85.8245 208.726 85.7233 208.686 85.6364 208.605C85.5496 208.518 85.5062 208.414 85.5062 208.292C85.5062 208.17 85.5496 208.066 85.6364 207.979C85.7233 207.893 85.8245 207.849 85.9403 207.849C86.0619 207.849 86.166 207.893 86.2529 207.979C86.3397 208.066 86.3831 208.17 86.3831 208.292C86.3831 208.414 86.3397 208.518 86.2529 208.605C86.166 208.686 86.0619 208.726 85.9403 208.726ZM86.2702 213.518H85.6191V209.325H86.2702V213.518ZM91.1808 213.518H90.5297V210.775C90.5297 210.422 90.4486 210.173 90.2866 210.028C90.1245 209.878 89.893 209.803 89.592 209.803C89.3489 209.803 89.1116 209.866 88.8801 209.994C88.6544 210.121 88.4778 210.274 88.3505 210.454V213.518H87.6993V209.325H88.3505V209.933C88.5126 209.742 88.7296 209.577 89.0016 209.438C89.2737 209.293 89.5544 209.221 89.8438 209.221C90.7351 209.221 91.1808 209.672 91.1808 210.575V213.518ZM94.4433 213.518H93.7314L91.9863 209.325H92.6896L94.0874 212.763L95.4765 209.325H96.1884L94.4433 213.518ZM98.8905 213.623C98.2654 213.623 97.7532 213.42 97.3538 213.015C96.9544 212.604 96.7548 212.072 96.7548 211.417C96.7548 210.804 96.9515 210.286 97.3451 209.863C97.7387 209.435 98.2307 209.221 98.8211 209.221C99.4404 209.221 99.9295 209.435 100.288 209.863C100.653 210.286 100.835 210.821 100.835 211.47V211.635H97.4406C97.4696 212.045 97.6201 212.39 97.8921 212.668C98.1641 212.945 98.5172 213.084 98.9513 213.084C99.4722 213.084 99.9034 212.908 100.245 212.555L100.557 212.98C100.129 213.409 99.5735 213.623 98.8905 213.623ZM100.193 211.157C100.187 210.798 100.065 210.477 99.8282 210.193C99.5909 209.904 99.2523 209.759 98.8124 209.759C98.3956 209.759 98.0657 209.901 97.8226 210.185C97.5853 210.468 97.458 210.792 97.4406 211.157H100.193ZM103.348 213.623C102.637 213.623 102.072 213.403 101.656 212.963L101.994 212.494C102.139 212.662 102.336 212.804 102.584 212.919C102.839 213.035 103.102 213.093 103.375 213.093C103.687 213.093 103.93 213.027 104.104 212.893C104.277 212.76 104.364 212.587 104.364 212.372C104.364 212.187 104.275 212.043 104.095 211.938C103.916 211.828 103.699 211.747 103.444 211.695C103.195 211.637 102.943 211.574 102.689 211.504C102.434 211.429 102.217 211.305 102.038 211.131C101.858 210.952 101.768 210.717 101.768 210.428C101.768 210.086 101.907 209.8 102.185 209.568C102.469 209.337 102.851 209.221 103.331 209.221C103.962 209.221 104.48 209.424 104.885 209.829L104.581 210.28C104.286 209.927 103.869 209.751 103.331 209.751C103.048 209.751 102.822 209.814 102.654 209.942C102.486 210.063 102.402 210.219 102.402 210.41C102.402 210.578 102.492 210.711 102.671 210.81C102.851 210.902 103.065 210.978 103.314 211.035C103.568 211.088 103.823 211.151 104.078 211.226C104.332 211.302 104.549 211.435 104.729 211.626C104.908 211.811 104.998 212.054 104.998 212.355C104.998 212.726 104.853 213.029 104.564 213.267C104.275 213.504 103.869 213.623 103.348 213.623ZM107.245 213.623C106.939 213.623 106.707 213.539 106.551 213.371C106.394 213.203 106.316 212.96 106.316 212.642V209.898H105.622V209.325H106.316V208.179H106.968V209.325H107.818V209.898H106.968V212.503C106.968 212.665 107.002 212.795 107.072 212.893C107.147 212.992 107.254 213.041 107.393 213.041C107.584 213.041 107.732 212.983 107.836 212.867L108.027 213.354C107.836 213.533 107.575 213.623 107.245 213.623ZM109.19 208.726C109.074 208.726 108.973 208.686 108.886 208.605C108.799 208.518 108.756 208.414 108.756 208.292C108.756 208.17 108.799 208.066 108.886 207.979C108.973 207.893 109.074 207.849 109.19 207.849C109.311 207.849 109.415 207.893 109.502 207.979C109.589 208.066 109.632 208.17 109.632 208.292C109.632 208.414 109.589 208.518 109.502 208.605C109.415 208.686 109.311 208.726 109.19 208.726ZM109.52 213.518H108.868V209.325H109.52V213.518ZM114.43 213.518H113.779V210.775C113.779 210.422 113.698 210.173 113.536 210.028C113.374 209.878 113.142 209.803 112.841 209.803C112.598 209.803 112.361 209.866 112.129 209.994C111.904 210.121 111.727 210.274 111.6 210.454V213.518H110.949V209.325H111.6V209.933C111.762 209.742 111.979 209.577 112.251 209.438C112.523 209.293 112.804 209.221 113.093 209.221C113.984 209.221 114.43 209.672 114.43 210.575V213.518ZM117.545 215.22C117.175 215.22 116.859 215.174 116.599 215.081C116.338 214.994 116.089 214.832 115.852 214.595L116.182 214.109C116.5 214.491 116.955 214.682 117.545 214.682C117.933 214.682 118.254 214.578 118.509 214.369C118.763 214.167 118.891 213.851 118.891 213.423V212.824C118.734 213.044 118.532 213.223 118.283 213.362C118.034 213.501 117.768 213.571 117.484 213.571C116.929 213.571 116.477 213.377 116.13 212.989C115.788 212.595 115.618 212.066 115.618 211.4C115.618 210.734 115.788 210.205 116.13 209.811C116.477 209.418 116.929 209.221 117.484 209.221C118.057 209.221 118.526 209.467 118.891 209.959V209.325H119.542V213.397C119.542 214.039 119.354 214.502 118.978 214.786C118.601 215.075 118.124 215.22 117.545 215.22ZM117.641 212.998C117.889 212.998 118.13 212.931 118.361 212.798C118.598 212.665 118.775 212.503 118.891 212.312V210.48C118.775 210.289 118.601 210.13 118.37 210.002C118.138 209.869 117.895 209.803 117.641 209.803C117.224 209.803 116.894 209.95 116.651 210.245C116.413 210.541 116.295 210.925 116.295 211.4C116.295 211.869 116.416 212.254 116.659 212.555C116.903 212.85 117.23 212.998 117.641 212.998ZM123.666 208.726C123.55 208.726 123.449 208.686 123.362 208.605C123.275 208.518 123.232 208.414 123.232 208.292C123.232 208.17 123.275 208.066 123.362 207.979C123.449 207.893 123.55 207.849 123.666 207.849C123.788 207.849 123.892 207.893 123.979 207.979C124.065 208.066 124.109 208.17 124.109 208.292C124.109 208.414 124.065 208.518 123.979 208.605C123.892 208.686 123.788 208.726 123.666 208.726ZM123.996 213.518H123.345V209.325H123.996V213.518ZM126.753 213.623C126.042 213.623 125.477 213.403 125.06 212.963L125.399 212.494C125.544 212.662 125.741 212.804 125.989 212.919C126.244 213.035 126.507 213.093 126.779 213.093C127.092 213.093 127.335 213.027 127.509 212.893C127.682 212.76 127.769 212.587 127.769 212.372C127.769 212.187 127.68 212.043 127.5 211.938C127.321 211.828 127.104 211.747 126.849 211.695C126.6 211.637 126.348 211.574 126.094 211.504C125.839 211.429 125.622 211.305 125.442 211.131C125.263 210.952 125.173 210.717 125.173 210.428C125.173 210.086 125.312 209.8 125.59 209.568C125.874 209.337 126.256 209.221 126.736 209.221C127.367 209.221 127.885 209.424 128.29 209.829L127.986 210.28C127.691 209.927 127.274 209.751 126.736 209.751C126.452 209.751 126.227 209.814 126.059 209.942C125.891 210.063 125.807 210.219 125.807 210.41C125.807 210.578 125.897 210.711 126.076 210.81C126.256 210.902 126.47 210.978 126.719 211.035C126.973 211.088 127.228 211.151 127.483 211.226C127.737 211.302 127.954 211.435 128.134 211.626C128.313 211.811 128.403 212.054 128.403 212.355C128.403 212.726 128.258 213.029 127.969 213.267C127.68 213.504 127.274 213.623 126.753 213.623ZM133.792 213.518H133.08L131.335 209.325H132.038L133.436 212.763L134.825 209.325H135.537L133.792 213.518ZM138.239 213.623C137.614 213.623 137.101 213.42 136.702 213.015C136.303 212.604 136.103 212.072 136.103 211.417C136.103 210.804 136.3 210.286 136.693 209.863C137.087 209.435 137.579 209.221 138.169 209.221C138.789 209.221 139.278 209.435 139.637 209.863C140.001 210.286 140.183 210.821 140.183 211.47V211.635H136.789C136.818 212.045 136.968 212.39 137.24 212.668C137.512 212.945 137.865 213.084 138.299 213.084C138.82 213.084 139.252 212.908 139.593 212.555L139.906 212.98C139.477 213.409 138.922 213.623 138.239 213.623ZM139.541 211.157C139.535 210.798 139.414 210.477 139.176 210.193C138.939 209.904 138.6 209.759 138.161 209.759C137.744 209.759 137.414 209.901 137.171 210.185C136.934 210.468 136.806 210.792 136.789 211.157H139.541ZM142.019 213.518H141.368V209.325H142.019V210.002C142.407 209.493 142.873 209.238 143.417 209.238V209.907C143.336 209.889 143.249 209.881 143.157 209.881C142.96 209.881 142.746 209.95 142.514 210.089C142.283 210.228 142.118 210.381 142.019 210.549V213.518ZM144.13 215.159L144.234 214.569C144.338 214.615 144.457 214.638 144.59 214.638C144.741 214.638 144.865 214.607 144.963 214.543C145.062 214.479 145.146 214.364 145.215 214.196L145.493 213.562L143.739 209.325H144.442L145.84 212.763L147.229 209.325H147.941L145.84 214.369C145.609 214.925 145.198 215.209 144.607 215.22C144.434 215.22 144.275 215.2 144.13 215.159ZM152.804 215.22C152.433 215.22 152.118 215.174 151.857 215.081C151.597 214.994 151.348 214.832 151.111 214.595L151.44 214.109C151.759 214.491 152.213 214.682 152.804 214.682C153.191 214.682 153.513 214.578 153.767 214.369C154.022 214.167 154.149 213.851 154.149 213.423V212.824C153.993 213.044 153.79 213.223 153.542 213.362C153.293 213.501 153.026 213.571 152.743 213.571C152.187 213.571 151.736 213.377 151.388 212.989C151.047 212.595 150.876 212.066 150.876 211.4C150.876 210.734 151.047 210.205 151.388 209.811C151.736 209.418 152.187 209.221 152.743 209.221C153.316 209.221 153.785 209.467 154.149 209.959V209.325H154.8V213.397C154.8 214.039 154.612 214.502 154.236 214.786C153.86 215.075 153.382 215.22 152.804 215.22ZM152.899 212.998C153.148 212.998 153.388 212.931 153.62 212.798C153.857 212.665 154.034 212.503 154.149 212.312V210.48C154.034 210.289 153.86 210.13 153.628 210.002C153.397 209.869 153.154 209.803 152.899 209.803C152.482 209.803 152.152 209.95 151.909 210.245C151.672 210.541 151.553 210.925 151.553 211.4C151.553 211.869 151.675 212.254 151.918 212.555C152.161 212.85 152.488 212.998 152.899 212.998ZM159.569 212.989C159.192 213.411 158.692 213.623 158.067 213.623C157.442 213.623 156.938 213.411 156.556 212.989C156.18 212.566 155.992 212.043 155.992 211.417C155.992 210.792 156.18 210.271 156.556 209.855C156.938 209.432 157.442 209.221 158.067 209.221C158.692 209.221 159.192 209.432 159.569 209.855C159.951 210.271 160.142 210.792 160.142 211.417C160.142 212.043 159.951 212.566 159.569 212.989ZM157.042 212.572C157.297 212.885 157.638 213.041 158.067 213.041C158.495 213.041 158.834 212.885 159.083 212.572C159.331 212.254 159.456 211.869 159.456 211.417C159.456 210.966 159.331 210.584 159.083 210.271C158.834 209.959 158.495 209.803 158.067 209.803C157.638 209.803 157.297 209.962 157.042 210.28C156.793 210.593 156.669 210.972 156.669 211.417C156.669 211.869 156.793 212.254 157.042 212.572ZM164.667 212.989C164.291 213.411 163.79 213.623 163.165 213.623C162.54 213.623 162.037 213.411 161.655 212.989C161.278 212.566 161.09 212.043 161.09 211.417C161.09 210.792 161.278 210.271 161.655 209.855C162.037 209.432 162.54 209.221 163.165 209.221C163.79 209.221 164.291 209.432 164.667 209.855C165.049 210.271 165.24 210.792 165.24 211.417C165.24 212.043 165.049 212.566 164.667 212.989ZM162.141 212.572C162.396 212.885 162.737 213.041 163.165 213.041C163.594 213.041 163.932 212.885 164.181 212.572C164.43 212.254 164.554 211.869 164.554 211.417C164.554 210.966 164.43 210.584 164.181 210.271C163.932 209.959 163.594 209.803 163.165 209.803C162.737 209.803 162.396 209.962 162.141 210.28C161.892 210.593 161.768 210.972 161.768 211.417C161.768 211.869 161.892 212.254 162.141 212.572ZM170.122 213.518H169.471V212.893C169.112 213.38 168.64 213.623 168.056 213.623C167.5 213.623 167.048 213.426 166.701 213.032C166.36 212.633 166.189 212.098 166.189 211.426C166.189 210.761 166.36 210.228 166.701 209.829C167.048 209.424 167.5 209.221 168.056 209.221C168.634 209.221 169.106 209.467 169.471 209.959V207.728H170.122V213.518ZM168.212 213.041C168.467 213.041 168.71 212.977 168.941 212.85C169.173 212.723 169.349 212.566 169.471 212.381V210.48C169.349 210.289 169.17 210.13 168.932 210.002C168.701 209.869 168.461 209.803 168.212 209.803C167.801 209.803 167.474 209.956 167.231 210.263C166.988 210.564 166.866 210.952 166.866 211.426C166.866 211.901 166.988 212.289 167.231 212.59C167.474 212.89 167.801 213.041 168.212 213.041Z" fill="#0D0F52"/>
<defs>
<linearGradient id="paint0_linear_1_543" x1="109.452" y1="61.2699" x2="102.165" y2="61.3733" gradientUnits="userSpaceOnUse">
<stop stop-color="#5E59A6"/>
<stop offset="1" stop-color="#40327A"/>
</linearGradient>
<linearGradient id="paint1_linear_1_543" x1="110.207" y1="55.8928" x2="99.1022" y2="56.5126" gradientUnits="userSpaceOnUse">
<stop stop-color="#5E59A6"/>
<stop offset="1" stop-color="#40327A"/>
</linearGradient>
<linearGradient id="paint2_linear_1_543" x1="90.5828" y1="103.991" x2="90.5828" y2="120.369" gradientUnits="userSpaceOnUse">
<stop stop-color="#5E59A6"/>
<stop offset="1" stop-color="#40327A"/>
</linearGradient>
<linearGradient id="paint3_linear_1_543" x1="94.1824" y1="101.32" x2="87.2575" y2="104.034" gradientUnits="userSpaceOnUse">
<stop stop-color="#7C7CB5"/>
<stop offset="1" stop-color="#5E59A6"/>
</linearGradient>
<linearGradient id="paint4_linear_1_543" x1="90.5838" y1="104.03" x2="90.5838" y2="112.169" gradientUnits="userSpaceOnUse">
<stop stop-color="#7C7CB5"/>
<stop offset="1" stop-color="#5E59A6"/>
</linearGradient>
<linearGradient id="paint5_linear_1_543" x1="91.7072" y1="111.333" x2="89.5367" y2="113.375" gradientUnits="userSpaceOnUse">
<stop stop-color="#7C7CB5"/>
<stop offset="1" stop-color="#5E59A6"/>
</linearGradient>
<clipPath id="clip0_1_543">
<rect width="108.09" height="89.362" fill="white" transform="translate(57.2698 45.987)"/>
</clipPath>
</defs>
</svg>
